<svg width="16" height="16" viewBox="0 0 16 16" fill="none" xmlns="http://www.w3.org/2000/svg">
    <path
        d="M0.928711 3.42856V4.65837H9.53741V7.118V8.34782V10.1925H5.98368C5.64605 9.81785 5.16229 9.57763 4.61815 9.57763C4.07401 9.57763 3.59026 9.81785 3.25263 10.1925H2.77343V9.57763L4.00325 8.34782H1.54362V11.4224H2.77343C2.77343 12.4413 3.59925 13.2671 4.61815 13.2671C5.63705 13.2671 6.46287 12.4413 6.46287 11.4224H10.1523C10.1523 12.4413 10.9781 13.2671 11.997 13.2671C13.0159 13.2671 13.8418 12.4413 13.8418 11.4224H14.4567H15.0716V8.34782L13.3962 4.99825C13.2923 4.7898 13.0804 4.65837 12.8473 4.65837H10.7672V3.42856H0.928711ZM1.54362 5.88819V7.118H5.84797V5.88819H1.54362ZM10.7672 5.88819H12.4666L13.0815 7.118H10.7672V5.88819ZM10.7672 8.34782H13.6964L13.8418 8.63845V10.1925H13.3626C13.0249 9.81785 12.5412 9.57763 11.997 9.57763C11.5223 9.57763 11.0941 9.76224 10.7672 10.0568V8.34782ZM4.61815 10.6537C5.04182 10.6537 5.38679 10.9987 5.38679 11.4224C5.38679 11.846 5.04182 12.191 4.61815 12.191C4.19448 12.191 3.84952 11.846 3.84952 11.4224C3.84952 10.9987 4.19448 10.6537 4.61815 10.6537ZM11.997 10.6537C12.4207 10.6537 12.7657 10.9987 12.7657 11.4224C12.7657 11.846 12.4207 12.191 11.997 12.191C11.5734 12.191 11.2284 11.846 11.2284 11.4224C11.2284 10.9987 11.5734 10.6537 11.997 10.6537Z"
        fill="#EFBB45" />
</svg>
